PathFileType	4	(X/Y/Z)	C:\Users\86182\Documents\cortex\Trimmed_M3_L1.trc
DataRate	CameraRate	NumFrames	NumMarkers	Units	OrigDataRate	OrigDataStartFrame	OrigNumFrames
100.00	100.00	       172	2	mm	100.00	1	       901
Frame#	Time	gripper			box			
		X1	Y1	Z1	X2	Y2	Z2	

1	0.000	274.61014	148.66373	193.06487	277.66550	146.88821	57.61685	
2	0.010	274.60715	148.67447	193.07924	277.67224	146.86317	57.59528	
3	0.020	274.60736	148.66789	193.04878	277.64328	146.90988	57.62025	
4	0.030	274.60828	148.66075	193.07047	277.66367	146.88470	57.62202	
5	0.040	274.60919	148.66510	193.05951	277.68820	146.88974	57.57995	
6	0.050	274.60587	148.65683	193.07794	277.69400	146.86084	57.57058	
7	0.060	274.60916	148.66730	193.06966	277.75632	146.87326	57.58419	
8	0.070	274.60858	148.66603	193.05594	277.64026	146.90887	57.62928	
9	0.080	274.61014	148.66373	193.06487	277.71002	146.90276	57.63201	
10	0.090	274.60666	148.67627	193.08165	277.72195	146.86656	57.58861	
11	0.100	274.61014	148.66373	193.06487	277.61835	146.88577	57.60806	
12	0.110	274.60889	148.66174	193.06859	277.68860	146.85313	57.61345	
13	0.120	274.61014	148.66373	193.06487	277.66156	146.89886	57.60953	
14	0.130	274.60916	148.66730	193.06966	277.65161	146.90584	57.61747	
15	0.140	274.61014	148.66373	193.06487	277.67880	146.86353	57.59718	
16	0.150	274.61014	148.66373	193.06487	277.69412	146.86555	57.57293	
17	0.160	274.61014	148.66373	193.06487	277.66534	146.86804	57.61320	
18	0.170	274.61014	148.66373	193.06487	277.69608	146.89363	57.61235	
19	0.180	274.59433	148.66330	193.07607	277.71625	146.85738	57.59607	
20	0.190	274.60864	148.66908	193.07205	277.61261	146.86324	57.61624	
21	0.200	274.59656	148.66336	193.07448	277.64169	146.88748	57.62524	
22	0.210	274.60110	148.66347	193.07127	277.62451	146.90565	57.62458	
23	0.220	274.60916	148.66730	193.06966	277.64127	146.88947	57.62860	
24	0.230	274.61014	148.66373	193.06487	277.61127	146.90227	57.63698	
25	0.240	274.61014	148.66373	193.06487	277.63516	146.91624	57.64476	
26	0.250	274.61014	148.66373	193.06487	277.71878	146.86313	57.54174	
27	0.260	274.60904	148.66644	193.06369	277.70462	146.89110	57.57198	
28	0.270	274.61014	148.66373	193.06487	277.65564	146.88501	57.57706	
29	0.280	274.61014	148.66373	193.06487	277.63159	146.85768	57.56042	
30	0.290	274.61014	148.66373	193.06487	277.61041	146.89403	57.59341	
31	0.300	274.61014	148.66373	193.06487	277.63684	146.89825	57.63223	
32	0.310	274.60602	148.67412	193.06197	277.57068	146.89911	57.62165	
33	0.320	274.59207	148.66324	193.07765	277.63171	146.91437	57.61992	
34	0.330	274.60770	148.65979	193.07233	277.63617	146.90968	57.64957	
35	0.340	274.60770	148.65979	193.07233	277.65317	146.89284	57.62672	
36	0.350	274.60965	148.66551	193.06726	277.62131	146.95218	57.64860	
37	0.360	274.60919	148.66510	193.05951	277.56003	146.94838	57.64851	
38	0.370	274.61014	148.66373	193.06487	277.60767	146.90215	57.68028	
39	0.380	274.61014	148.66373	193.06487	277.59140	146.90160	57.66474	
40	0.390	274.60919	148.66510	193.05951	277.62570	146.87700	57.59563	
41	0.400	274.60583	148.66255	193.06161	277.58768	146.90866	57.62681	
42	0.410	274.60828	148.66649	193.05417	277.60535	146.87537	57.60794	
43	0.420	274.60800	148.66696	193.05237	277.54565	146.92786	57.63504	
44	0.430	274.60889	148.66174	193.06859	277.63721	146.90604	57.61912	
45	0.440	274.61084	148.66782	193.05434	277.62848	146.89790	57.61293	
46	0.450	274.60919	148.66510	193.05951	277.54932	146.93336	57.62192	
47	0.460	274.60770	148.65979	193.07233	277.61288	146.92438	57.66759	
48	0.470	274.60779	148.66827	193.05655	277.55615	146.90092	57.62714	
49	0.480	274.61014	148.66373	193.06487	277.52356	146.94070	57.63850	
50	0.490	274.61014	148.66373	193.06487	277.51498	146.91174	57.63355	
51	0.500	274.60501	148.66454	193.06450	277.53922	146.93520	57.61967	
52	0.510	274.60648	148.65781	193.07608	277.65604	146.85838	57.58517	
53	0.520	274.60889	148.66174	193.06859	277.53488	146.89793	57.64280	
54	0.530	274.61014	148.66373	193.06487	277.60535	146.87868	57.63089	
55	0.540	274.60455	148.65480	193.08171	277.64960	146.93947	57.65394	
56	0.550	274.60800	148.66696	193.05237	277.70093	146.88107	57.52225	
57	0.560	274.61014	148.66373	193.06487	277.76422	146.86639	57.52060	
58	0.570	274.61014	148.66373	193.06487	277.74808	146.88255	57.50980	
59	0.580	274.60953	148.66466	193.06129	277.67569	146.87317	57.58608	
60	0.590	274.60980	148.66417	193.06308	277.65262	146.90509	57.61182	
61	0.600	274.60828	148.66075	193.07047	277.63010	146.90863	57.61717	
62	0.610	274.60953	148.66466	193.06129	277.60745	146.90987	57.62304	
63	0.620	274.60858	148.66603	193.05594	277.67725	146.91316	57.59347	
64	0.630	274.61014	148.66373	193.06487	277.62048	146.87045	57.57094	
65	0.640	274.60614	148.66975	193.04160	277.56586	146.90723	57.62393	
66	0.650	274.61014	148.66373	193.06487	277.59778	146.91792	57.63774	
67	0.660	274.60614	148.66975	193.04160	277.58215	146.90105	57.63130	
68	0.670	274.60828	148.66649	193.05417	277.57568	146.92433	57.61808	
69	0.680	274.61014	148.66373	193.06487	277.59909	146.87898	57.61578	
70	0.690	274.60641	148.66928	193.04340	277.65707	146.88254	57.59595	
71	0.700	274.61014	148.66373	193.06487	277.66272	146.88353	57.61481	
72	0.710	274.61780	148.67261	193.05133	277.63589	146.87964	57.57234	
73	0.720	274.61014	148.66373	193.06487	277.57767	146.91231	57.59843	
74	0.730	274.61014	148.66373	193.06487	277.63165	146.88843	57.59251	
75	0.740	274.59503	148.66568	193.06555	277.64420	146.85223	57.55240	
76	0.750	274.60953	148.66273	193.06673	277.69678	146.87149	57.60941	
77	0.760	274.61295	148.66307	193.06227	277.70245	146.90695	57.59811	
78	0.770	274.60980	148.66417	193.06308	277.73099	146.85681	57.56100	
79	0.780	274.61014	148.66373	193.06487	277.72406	146.90623	57.61182	
80	0.790	274.60980	148.66417	193.06308	277.64941	146.92500	57.62086	
81	0.800	274.60892	148.66559	193.05774	277.69482	146.88412	57.56559	
82	0.810	274.60892	148.66559	193.05774	277.67862	146.86664	57.58961	
83	0.820	274.60773	148.67047	193.06670	277.73444	146.88902	57.59470	
84	0.830	274.61206	148.66595	193.06148	277.59793	146.90627	57.60714	
85	0.840	274.60980	148.66417	193.06308	277.64352	146.89771	57.61212	
86	0.850	274.60980	148.66417	193.06308	277.63193	146.91319	57.62129	
87	0.860	274.60800	148.66696	193.05237	277.61838	146.90518	57.58580	
88	0.870	274.60919	148.66510	193.05951	277.67719	146.88130	57.58422	
89	0.880	274.61014	148.66373	193.06487	277.66263	146.89935	57.60302	
90	0.890	274.60767	148.66742	193.05058	277.62558	146.88260	57.56658	
91	0.900	274.61014	148.66373	193.06487	277.67719	146.86966	57.57569	
92	0.910	274.60687	148.66968	193.05118	277.62961	146.87592	57.56329	
93	0.920	274.61270	148.66751	193.05801	277.63351	146.89336	57.57561	
94	0.930	274.60953	148.66466	193.06129	277.56198	146.91440	57.62145	
95	0.940	274.60675	148.66882	193.04520	277.60760	146.90099	57.59968	
96	0.950	274.60327	148.68137	193.06198	277.62500	146.88164	57.60656	
97	0.960	274.60767	148.66742	193.05058	277.62985	146.87994	57.59251	
98	0.970	274.61273	148.67001	193.05095	277.64011	146.91119	57.61209	
99	0.980	274.60617	148.67279	193.05775	277.66772	146.86057	57.59597	
100	0.990	274.60858	148.67850	193.07826	277.59229	146.90829	57.62317	
101	1.000	274.60580	148.67546	193.06615	277.58493	146.90619	57.63004	
102	1.010	274.60767	148.66742	193.05058	277.60577	146.92065	57.60836	
103	1.020	274.61014	148.66373	193.06487	277.63693	146.90602	57.64738	
104	1.030	274.60858	148.66603	193.05594	277.54852	146.96225	57.65455	
105	1.040	274.60919	148.66510	193.05951	277.65018	146.89975	57.64074	
106	1.050	274.61014	148.66373	193.06487	277.58316	146.93617	57.62537	
107	1.060	274.61014	148.66373	193.06487	277.60818	146.92259	57.61038	
108	1.070	274.61014	148.66373	193.06487	277.59381	146.91879	57.63829	
109	1.080	274.61014	148.66373	193.06487	277.62369	146.90657	57.58011	
110	1.090	274.61014	148.66373	193.06487	277.58231	146.91611	57.59877	
111	1.100	274.61014	148.66373	193.06487	277.61905	146.91508	57.58960	
112	1.110	274.60980	148.66417	193.06308	277.61115	146.90955	57.61226	
113	1.120	274.61084	148.66782	193.05434	277.57922	146.93901	57.67471	
114	1.130	274.61014	148.66373	193.06487	277.66550	146.89113	57.58924	
115	1.140	274.60666	148.67627	193.08165	277.69748	146.88510	57.59023	
116	1.150	274.61108	148.66484	193.06317	277.62482	146.89003	57.60488	
117	1.160	274.60828	148.67589	193.06035	277.58899	146.90421	57.59774	
118	1.170	274.60800	148.66696	193.05237	277.55521	146.92018	57.63433	
119	1.180	274.60767	148.66742	193.05058	277.66992	146.86696	57.59506	
120	1.190	274.61404	148.67789	193.04704	277.63953	146.87694	57.60027	
121	1.200	274.60800	148.66696	193.05237	277.66763	146.88667	57.59579	
122	1.210	274.60785	148.67133	193.07268	277.59402	146.91176	57.60121	
123	1.220	274.61157	148.69246	193.06821	277.63016	146.87329	57.60032	
124	1.230	274.60764	148.67268	193.07686	277.65671	146.91364	57.62007	
125	1.240	274.61148	148.66937	193.05086	277.66180	146.87656	57.58535	
126	1.250	274.61014	148.66373	193.06487	277.65335	146.89117	57.60279	
127	1.260	274.60965	148.66551	193.06726	277.69138	146.86705	57.60241	
128	1.270	274.60614	148.66975	193.04160	277.64694	146.88203	57.60613	
129	1.280	274.60382	148.67693	193.09210	277.63211	146.89301	57.63018	
130	1.290	274.60889	148.66174	193.06859	277.70978	146.87666	57.58974	
131	1.300	274.60980	148.66417	193.06308	277.66095	146.87285	57.58866	
132	1.310	274.60208	148.66158	193.07341	277.67239	146.85030	57.58564	
133	1.320	274.59433	148.65257	193.09186	277.53622	146.84656	57.58441	
134	1.330	274.58533	148.66307	193.08243	277.40140	146.77240	57.57109	
135	1.340	274.48569	148.66313	193.15279	277.43381	146.84628	57.58245	
136	1.350	274.42380	148.67802	193.21335	277.42847	146.82028	57.59511	
137	1.360	274.35992	148.71101	193.27342	277.40036	146.85698	57.62061	
138	1.370	274.33136	148.71689	193.29445	277.32556	146.83992	57.58636	
139	1.380	274.31979	148.71841	193.34143	277.41678	146.87186	57.63755	
140	1.390	274.30197	148.73837	193.41428	277.36325	146.89323	57.61389	
141	1.400	274.25134	148.69670	193.45023	277.47955	146.85854	57.62904	
142	1.410	274.26105	148.68138	193.43687	277.45035	146.81415	57.67634	
143	1.420	274.10751	148.76245	193.57420	277.45212	146.78482	57.72015	
144	1.430	274.17264	148.79510	193.61424	277.62186	146.80101	57.90287	
145	1.440	274.19986	148.74173	193.78462	277.45227	146.77963	58.04602	
146	1.450	274.28952	148.73888	193.93692	277.53427	146.73969	58.09976	
147	1.460	274.18164	148.64754	194.15704	277.34521	146.74376	58.45010	
148	1.470	274.39795	148.66187	194.51883	277.40515	146.68050	58.64958	
149	1.480	274.63916	148.62390	194.79312	277.45633	146.69569	58.79006	
150	1.490	274.62271	148.59760	194.86186	277.52029	146.77568	59.13495	
151	1.500	274.43787	148.61957	195.26646	277.90823	146.89595	59.55925	
152	1.510	274.09177	148.75851	195.91026	277.60443	146.86955	59.90718	
153	1.520	274.14182	148.82596	196.34279	277.34030	146.90175	60.43039	
154	1.530	274.36649	148.76746	196.52417	277.25555	146.81728	60.69426	
155	1.540	274.56152	148.70645	196.83557	277.51541	146.91621	61.03898	
156	1.550	274.34952	148.72601	197.19180	277.72870	146.90028	61.29320	
157	1.560	274.25641	148.91550	197.84454	277.54169	146.94730	61.99214	
158	1.570	274.15894	148.96371	198.31911	277.38770	146.94255	62.59116	
159	1.580	274.30002	148.82817	198.58646	277.17136	147.04382	62.91668	
160	1.590	274.31961	148.85608	198.84354	277.33728	147.19897	63.25245	
161	1.600	274.25342	148.79890	199.54601	277.47501	147.20035	63.55360	
162	1.610	274.29709	148.98459	200.01367	277.17319	147.20822	64.04232	
163	1.620	274.23874	149.03712	200.43617	277.11432	147.18752	64.81897	
164	1.630	274.47885	148.98117	200.73277	277.23618	147.30933	65.26952	
165	1.640	274.30386	148.99962	201.20651	277.32056	147.34303	65.49211	
166	1.650	274.39444	148.85100	201.66682	277.15738	147.34683	65.81214	
167	1.660	274.23001	149.06009	202.19182	277.27496	147.23177	66.21552	
168	1.670	274.39590	148.98587	202.65666	277.35654	147.15852	66.71297	
169	1.680	274.43527	148.90887	202.90393	277.36856	147.29323	67.39865	
170	1.690	274.33130	148.97430	203.36566	277.45175	147.22643	67.57147	
171	1.700	274.45697	148.90656	203.81857	277.48053	147.20419	67.92274	
172	1.710	274.48386	148.96878	204.27921	277.31335	147.33496	68.36063	
